<svg xmlns="http://www.w3.org/2000/svg" viewBox="0 0 24 24" xmlns:v="https://vecta.io/nano"><path fill="#fff" d="M13.3 4.2c.7.8 1.1 1.7 1.5 2.5l.7-.4.4 1c.8-.7 1.7-1.3 2.6-1.8l1.3-.6.2 1.5c.1 1.6-.1 3.1-.7 4.3.5 0 1 .1 1.4.3l1 .4-.5 1-.9 1.4c1.1.3 1.9.7 2.5 1.3l1.1 1.1-1.5.5c-1.7.6-2.9.9-4 .9.1.2.1.4.2.6l.4 1.3h-1.3c-1.2 0-2.2-.2-3-.7-.2-.1-.4-.3-.6-.4-.3.7-.7 1.4-1.3 2.2l-.8.9-.8-1.1c-.6-.8-1-1.5-1.3-2.2-.2.2-.4.3-.6.4-.8.5-1.8.7-3 .7H5l.4-1.3c0-.1.1-.3.2-.6h-.1c-1 0-2.2-.3-3.9-.9L.1 16l1.1-1c.6-.6 1.4-1 2.5-1.3-.3-.4-.6-.9-.9-1.4l-.5-1 1-.4c.4-.2.9-.3 1.4-.3C4.1 9.4 3.9 8 4 6.4l.1-1.5 1.3.6c.9.5 1.8 1 2.6 1.8l.4-1 .7.4c.3-.8.8-1.6 1.5-2.5l.8-1 .6-.5.5.5.8 1z"/><path d="M12 6.8c-.4.3-.8 1-1.2 1.7a2.36 2.36 0 0 0-.9-.8c.4-1.2 1.1-2.4 2.1-3.5h0c1 1.1 1.7 2.3 2.1 3.5-.3.2-.6.5-.9.8-.4-.7-.8-1.4-1.2-1.7zm0 7.3c-1 0-2-.8-1.9-2.1.2-1.5.8-2.8 1.9-4 1.1 1.2 1.7 2.5 1.9 4 .1 1.3-1 2.1-1.9 2.1zm0 .7c1.1 0 1.7.7 1.5 2-.1 1-.7 1.9-1.5 2.9-.7-1-1.3-2-1.5-2.9-.2-1.3.4-1.9 1.5-2zm1.5-5.7c.4-.7.9-1.1 1.5-1.4.7 1.9.5 3.3-.4 4.3-.3-1.1-.7-2.1-1.1-2.9zm-.8 5.4c1-.1 1.6-.8 1.9-2 .7-.2 1.3-.6 1.7-1.1.4 2.6-2.2 4.2-3.6 3.1zm2.9-3.3l1.1-.7c.1.6.2 1.2.1 1.9 1.6-1.5 2.4-3.4 2.2-5.9A11.09 11.09 0 0 0 15.7 9c.2.6.1 1.4-.1 2.2zm-1.6 4c1.6-.5 2.8-1.5 3.6-3.1.9-.5 1.8-.6 2.6-.3-1.5 3-3.8 4.2-6.2 3.4zm2.4.4c.9.1 1.7-.3 2.3-1.1 1.4.2 2.7.5 3.4 1.3-2.5.8-4.6 1.2-5.7-.2zm-2.5-.3c-.3.1-.4.5-.2.7a3.08 3.08 0 0 0 1.5 1.7c.7.4 1.5.5 2.5.5-.2-.8-.7-1.8-1.4-2.2-.6-.3-1.6.2-2.4-.7zm-3.8 0c.3.1.4.5.2.7a3.08 3.08 0 0 1-1.5 1.7c-.7.4-1.5.5-2.5.5.2-.8.7-1.8 1.4-2.2.6-.3 1.6.2 2.4-.7zm.4-6.2C10.1 8.4 9.6 8 9 7.7c-.6 1.9-.5 3.3.4 4.3.3-1.1.7-2.1 1.1-2.9zm.8 5.4c-1-.1-1.6-.8-1.9-2-.7-.2-1.3-.6-1.7-1.1-.4 2.6 2.2 4.2 3.6 3.1zm-2.9-3.3l-1.1-.7c-.1.6-.2 1.2-.1 1.9C5.6 10.9 4.8 9 5 6.4c1.2.6 2.3 1.5 3.3 2.5-.2.7-.1 1.5.1 2.3zm1.6 4c-1.6-.5-2.8-1.5-3.6-3.1-.9-.5-1.8-.6-2.6-.3 1.5 3 3.8 4.2 6.2 3.4zm-2.4.4c-.9.1-1.7-.3-2.3-1.1-1.4.2-2.7.5-3.4 1.3 2.5.8 4.6 1.2 5.7-.2z"/></svg>